<?xml version="1.0" encoding="iso-8859-1"?>
<!-- Generator: Adobe Illustrator 17.0.0, SVG Export Plug-In . SVG Version: 6.00 Build 0)  -->
<!DOCTYPE svg PUBLIC "-//W3C//DTD SVG 1.0//EN" "http://www.w3.org/TR/2001/REC-SVG-20010904/DTD/svg10.dtd">
<svg version="1.0" id="Layer_1" xmlns="http://www.w3.org/2000/svg" xmlns:xlink="http://www.w3.org/1999/xlink" x="0px" y="0px"
	 width="351.945px" height="351.945px" viewBox="69 62 351.945 351.945" enable-background="new 69 62 351.945 351.945"
	 xml:space="preserve">
<path fill="#2E2E2E" d="M271.169,237.973L415.52,93.622c7.233-7.234,7.233-18.962,0-26.196c-7.234-7.234-18.963-7.234-26.197,0
	L244.972,211.777L100.621,67.426c-7.234-7.234-18.962-7.234-26.196,0s-7.234,18.962,0,26.196l144.351,144.351L74.425,382.324
	c-7.234,7.234-7.234,18.962,0,26.196c7.234,7.234,18.962,7.233,26.196,0l144.351-144.351l144.35,144.351
	c7.234,7.234,18.963,7.233,26.197,0c7.233-7.234,7.233-18.962,0-26.196L271.169,237.973z"/>
</svg>
