<svg version="1.0" id="Layer_1" xmlns="http://www.w3.org/2000/svg" xmlns:xlink="http://www.w3.org/1999/xlink" x="0px" y="0px"
	 width="34px" height="22px" viewBox="0 0 1060.926 680.602" enable-background="new 0 0 1060.926 680.602"
	 xml:space="preserve">
<g>
	<path fill="#2E2E2E" d="M40.087,80.049h980.878c22.095,0,39.961-17.891,39.961-39.962c0-22.095-17.866-40.087-39.961-40.087H40.087
		C17.991,0,0,17.991,0,40.087C0,62.157,17.991,80.049,40.087,80.049L40.087,80.049z M40.087,80.049"/>
	<path fill="#2E2E2E" d="M40.087,380.325h980.878c22.095,0,39.961-17.891,39.961-39.962c0-22.095-17.866-40.087-39.961-40.087
		H40.087C17.991,300.276,0,318.268,0,340.363C0,362.434,17.991,380.325,40.087,380.325L40.087,380.325z M40.087,380.325"/>
	<path fill="#2E2E2E" d="M40.087,680.602h980.878c22.095,0,39.961-17.891,39.961-39.962c0-22.095-17.866-40.087-39.961-40.087
		H40.087C17.991,600.553,0,618.544,0,640.64C0,662.71,17.991,680.602,40.087,680.602L40.087,680.602z M40.087,680.602"/>
</g>
</svg>
