<?xml version="1.0" encoding="iso-8859-1"?>
<!-- Generator: Adobe Illustrator 17.0.0, SVG Export Plug-In . SVG Version: 6.00 Build 0)  -->
<!DOCTYPE svg PUBLIC "-//W3C//DTD SVG 1.0//EN" "http://www.w3.org/TR/2001/REC-SVG-20010904/DTD/svg10.dtd">
<svg version="1.0" id="Layer_1" xmlns="http://www.w3.org/2000/svg" xmlns:xlink="http://www.w3.org/1999/xlink" x="0px" y="0px"
	 width="437.999px" height="438px" viewBox="22.251 37 437.999 438" enable-background="new 22.251 37 437.999 438"
	 xml:space="preserve">
<g>
	<path fill="#2E2E2E" d="M335.107,312.346h-20.054l-7.446-7.571c25.061-27.501,39.952-65.043,39.952-105.119
		C347.558,109.584,274.975,37,184.904,37S22.251,109.584,22.251,199.655c0,90.07,72.582,162.653,162.653,162.653
		c40.077,0,77.621-14.892,105.12-39.952l7.571,7.446v20.055L422.738,475l37.511-37.511L335.107,312.346z M184.904,312.346
		c-62.57,0-112.534-50.12-112.534-112.691c0-62.572,49.964-112.535,112.534-112.535c62.572,0,112.691,49.963,112.691,112.535
		C297.594,262.225,247.476,312.346,184.904,312.346L184.904,312.346z"/>
</g>
</svg>
