<?xml version="1.0" encoding="iso-8859-1"?>
<!-- Generator: Adobe Illustrator 17.0.0, SVG Export Plug-In . SVG Version: 6.00 Build 0)  -->
<!DOCTYPE svg PUBLIC "-//W3C//DTD SVG 1.0//EN" "http://www.w3.org/TR/2001/REC-SVG-20010904/DTD/svg10.dtd">
<svg version="1.0" id="Layer_1" xmlns="http://www.w3.org/2000/svg" xmlns:xlink="http://www.w3.org/1999/xlink" x="0px" y="0px"
	 width="512px" height="512px" viewBox="-49 141 512 512" enable-background="new -49 141 512 512" xml:space="preserve">
<g>
	<path fill="#FFFFFF" d="M316.356,462.551h-23.419l-8.696-8.842c29.266-32.116,46.656-75.958,46.656-122.759
		c0-105.186-84.763-189.95-189.949-189.95S-49,225.764-49,330.95c0,105.185,84.762,189.948,189.948,189.948
		c46.802,0,90.646-17.391,122.76-46.656l8.841,8.696v23.42L418.693,652.5l43.806-43.806L316.356,462.551z M140.948,462.551
		C67.878,462.551,9.53,404.02,9.53,330.95c0-73.072,58.348-131.419,131.418-131.419c73.072,0,131.601,58.347,131.601,131.419
		C272.549,404.02,214.02,462.551,140.948,462.551L140.948,462.551z M140.948,462.551"/>
</g>
</svg>
